<svg xmlns="http://www.w3.org/2000/svg" width="22.077" height="23.77" viewBox="0 0 22.077 23.77">
  <g id="school-calendar" transform="translate(-12.884)">
    <g id="Group_741" data-name="Group 741" transform="translate(12.885)">
      <g id="Group_740" data-name="Group 740">
        <path id="Path_939" data-name="Path 939" d="M33.319,2.876H31.512V1.643A1.643,1.643,0,0,0,29.87,0H29.8a1.643,1.643,0,0,0-1.643,1.643V2.876H19.685V1.643A1.643,1.643,0,0,0,18.043,0h-.066a1.643,1.643,0,0,0-1.643,1.643V2.876H14.528a1.643,1.643,0,0,0-1.643,1.643V22.127a1.643,1.643,0,0,0,1.643,1.643H33.319a1.643,1.643,0,0,0,1.643-1.643V4.519A1.643,1.643,0,0,0,33.319,2.876ZM32.2,21.175H15.645V7.837H32.2Z" transform="translate(-12.885)"/>
        <path id="Path_940" data-name="Path 940" d="M85.4,163.02h2.858a.263.263,0,0,0,.263-.263V159.9a.263.263,0,0,0-.263-.263H85.4a.263.263,0,0,0-.263.263v2.858A.263.263,0,0,0,85.4,163.02Z" transform="translate(-80.389 -149.147)"/>
        <path id="Path_941" data-name="Path 941" d="M155.4,163.02h2.858a.263.263,0,0,0,.263-.263V159.9a.263.263,0,0,0-.263-.263H155.4a.263.263,0,0,0-.263.263v2.858A.263.263,0,0,0,155.4,163.02Z" transform="translate(-145.789 -149.147)"/>
        <path id="Path_942" data-name="Path 942" d="M225.4,163.02h2.858a.263.263,0,0,0,.263-.263V159.9a.263.263,0,0,0-.263-.263H225.4a.263.263,0,0,0-.263.263v2.858A.263.263,0,0,0,225.4,163.02Z" transform="translate(-211.19 -149.147)"/>
        <path id="Path_943" data-name="Path 943" d="M85.4,233.02h2.858a.263.263,0,0,0,.263-.263V229.9a.263.263,0,0,0-.263-.263H85.4a.263.263,0,0,0-.263.263v2.858A.263.263,0,0,0,85.4,233.02Z" transform="translate(-80.389 -214.548)"/>
        <path id="Path_944" data-name="Path 944" d="M155.4,233.02h2.858a.263.263,0,0,0,.263-.263V229.9a.263.263,0,0,0-.263-.263H155.4a.263.263,0,0,0-.263.263v2.858A.263.263,0,0,0,155.4,233.02Z" transform="translate(-145.789 -214.548)"/>
        <path id="Path_945" data-name="Path 945" d="M225.4,233.02h2.858a.263.263,0,0,0,.263-.263V229.9a.263.263,0,0,0-.263-.263H225.4a.263.263,0,0,0-.263.263v2.858A.263.263,0,0,0,225.4,233.02Z" transform="translate(-211.19 -214.548)"/>
      </g>
    </g>
  </g>
</svg>
