<svg xmlns="http://www.w3.org/2000/svg" width="46.287" height="56.03" viewBox="0 0 46.287 56.03">
  <path id="Subtraction_1" data-name="Subtraction 1" d="M21648.783-6809.233h-43.6a1.219,1.219,0,0,1-1.217-1.217,1.219,1.219,0,0,1,1.217-1.217h3.525l0-.006h2.439l0,.006h4.871v-12.182h-4.328c-.029,0-.059,0-.1-.005-1.135-.011-2.43-.107-3.1-.164a6.139,6.139,0,0,1-3.322-2.132,6.008,6.008,0,0,1-1.328-3.79v-4.869a1.222,1.222,0,0,1,1.217-1.223h3.65v-23.141a6.1,6.1,0,0,1,6.092-6.091h24.363a6.1,6.1,0,0,1,6.09,6.091v23.141h3.652a1.224,1.224,0,0,1,1.223,1.223v4.869a6.112,6.112,0,0,1-4.516,5.886v-.012l-.016,0a21.445,21.445,0,0,1-2.771.208c-.029,0-.062,0-.1.005h-4.781v12.182h4.873l0-.006h2.434l0,.006h3.529a1.219,1.219,0,0,1,1.217,1.217A1.219,1.219,0,0,1,21648.783-6809.233Zm-30.324-14.616h0v12.182h17.051v-12.182h-17.051Zm-12.182-9.742h0v3.651a3.661,3.661,0,0,0,3.656,3.657h34.105a3.659,3.659,0,0,0,3.652-3.657v-3.651h-41.414Zm4.873-19.49h0v17.05h31.672v-17.05h-31.672Zm3.652-9.748a3.659,3.659,0,0,0-3.652,3.657v3.651h31.672v-3.651a3.661,3.661,0,0,0-3.656-3.657Z" transform="translate(-21603.844 6865.263)" fill="#7e7e7e"/>
</svg>
