<svg xmlns="http://www.w3.org/2000/svg" width="63.316" height="55.111" viewBox="0 0 63.316 55.111">
  <g id="Group_1311" data-name="Group 1311" transform="matrix(0.951, 0.309, -0.309, 0.951, -299.087, -782.697)">
    <g id="paper-plane" transform="translate(540.471 645.285)">
      <path id="Path_1763" data-name="Path 1763" d="M301.392,19,281.554,47.638l-2.068,2.985V60.646l7.538-7.367-3.85-7.186" transform="translate(-251.511 -18.099)" fill="#5c5c5c"/>
      <path id="Path_1764" data-name="Path 1764" d="M78.564,40.381,64,35.925,107.842,10V49.338L85.921,42.631" transform="translate(-57.594 -10)" fill="#e0e0e0"/>
      <path id="Path_1765" data-name="Path 1765" d="M219.973,60.646,213.353,48.6,241.878,19,220.588,49.735Z" transform="translate(-191.997 -18.099)" fill="#8b8b8b"/>
      <path id="Path_1767" data-name="Path 1767" d="M65.052,344.941a1,1,0,0,0-1.416,0l-9.344,9.344a1,1,0,0,0,1.416,1.416l9.344-9.344A1,1,0,0,0,65.052,344.941Z" transform="translate(-48.594 -311.151)" fill="#1e9c65"/>
      <path id="Path_1768" data-name="Path 1768" d="M2.6,469.294l-2.3,2.3a1,1,0,0,0,1.416,1.416l2.3-2.3A1,1,0,1,0,2.6,469.294Z" transform="translate(0 -423.057)" fill="#1e9c65"/>
      <path id="Path_1769" data-name="Path 1769" d="M126.581,491.41a1,1,0,1,0,.708.293A1.007,1.007,0,0,0,126.581,491.41Z" transform="translate(-113.01 -443.223)" fill="#1e9c65"/>
      <path id="Path_1770" data-name="Path 1770" d="M155.777,417.3l-4.949,4.949a1,1,0,1,0,1.416,1.415l4.949-4.949a1,1,0,1,0-1.416-1.416Z" transform="translate(-135.466 -376.267)" fill="#1e9c65"/>
      <path id="Path_1771" data-name="Path 1771" d="M326.309,413.5l-4.963,4.963a1,1,0,0,0,1.415,1.416l4.963-4.963a1,1,0,0,0-1.416-1.416Z" transform="translate(-288.917 -372.851)" fill="#1e9c65"/>
    </g>
  </g>
</svg>
